<?xml version="1.0" standalone="no"?>
<!DOCTYPE svg PUBLIC "-//W3C//DTD SVG 20010904//EN"
 "http://www.w3.org/TR/2001/REC-SVG-20010904/DTD/svg10.dtd">
<svg version="1.0" xmlns="http://www.w3.org/2000/svg"
 width="600.000000pt" height="600.000000pt" viewBox="0 0 600.000000 600.000000"
 preserveAspectRatio="xMidYMid meet">
<metadata>
Created by potrace 1.11, written by Peter Selinger 2001-2013
</metadata>
<g transform="translate(0.000000,600.000000) scale(0.100000,-0.100000)"
fill="#000000" stroke="none">
<path d="M2983 5298 c-83 -200 -206 -644 -184 -658 5 -3 5 -30 0 -60 -5 -30
-16 -118 -25 -195 -10 -86 -21 -143 -28 -147 -7 -4 -14 -30 -15 -60 -1 -29 -5
-123 -9 -209 -6 -135 -5 -156 8 -155 13 1 15 -29 18 -201 2 -146 -1 -203 -9
-203 -8 0 -9 -53 -4 -197 5 -109 8 -204 8 -210 0 -7 6 -13 12 -13 8 0 14 -35
19 -107 3 -60 9 -152 13 -206 l6 -97 -44 -38 c-102 -86 -291 -284 -357 -374
-85 -114 -272 -438 -324 -559 -82 -191 -121 -384 -122 -604 0 -82 3 -159 8
-170 5 -11 11 -31 13 -45 13 -89 61 -151 133 -170 22 -6 40 -15 40 -20 0 -14
35 -22 65 -14 17 4 24 11 21 20 -3 8 1 14 9 14 41 0 114 102 115 161 0 14 6
39 14 55 8 16 17 70 21 119 12 152 111 371 258 566 76 102 114 146 165 193
l32 30 19 -21 c11 -12 26 -23 33 -25 10 -4 8 -19 -9 -69 -104 -301 -111 -662
-17 -787 14 -18 43 -41 65 -52 21 -11 39 -25 39 -30 0 -6 18 -10 40 -10 26 0
40 5 40 13 0 7 13 21 30 30 34 21 81 95 85 135 1 15 8 38 16 52 23 42 17 301
-10 428 -18 84 -56 222 -78 277 -2 8 10 15 33 18 20 3 42 14 49 23 11 16 17
13 65 -32 101 -95 215 -255 300 -424 73 -145 97 -217 103 -315 12 -172 57
-299 118 -330 16 -9 29 -22 29 -29 0 -8 11 -17 24 -20 26 -6 56 1 56 14 0 4
21 13 48 20 123 30 168 159 159 450 -10 308 -75 507 -275 841 -139 234 -332
472 -482 594 -38 31 -70 62 -70 69 0 6 7 98 15 205 12 146 13 201 4 225 -16
44 2 394 21 406 17 11 29 408 12 419 -6 4 -14 80 -19 191 -10 230 -10 215 3
213 13 -3 11 29 -17 237 -23 177 -23 174 -60 335 -46 205 -153 533 -183 563
-11 12 -18 3 -43 -60z m84 -250 c-3 -7 -5 -2 -5 12 0 14 2 19 5 13 2 -7 2 -19
0 -25z m10 -60 c-3 -7 -5 -2 -5 12 0 14 2 19 5 13 2 -7 2 -19 0 -25z m28 -208
c4 -52 9 -98 12 -102 2 -5 -1 -8 -6 -8 -6 0 -11 12 -12 28 0 15 -2 34 -3 42
-2 8 -6 60 -9 115 -4 65 -3 86 3 60 4 -22 11 -83 15 -135z m53 -129 c29 -4 57
-12 61 -17 9 -8 31 -167 46 -327 l7 -68 -34 5 c-18 3 -72 8 -120 12 l-88 6 0
199 0 199 38 -1 c20 0 61 -4 90 -8z m-154 -407 c14 -5 16 -33 16 -205 l0 -199
-92 0 c-51 0 -110 -3 -130 -6 l-38 -7 1 174 c1 96 4 188 8 204 6 29 8 30 81
36 122 9 138 9 154 3z m145 -276 c1 -79 -3 -128 -9 -128 -6 0 -10 57 -9 153 1
91 4 142 9 127 4 -14 8 -82 9 -152z m124 -157 c9 -9 6 -386 -3 -393 -3 -3 -58
-2 -122 0 l-118 4 0 206 0 205 117 -7 c65 -3 121 -10 126 -15z m-259 -410 c3
-5 3 -97 -1 -205 l-6 -196 -113 0 c-110 0 -114 1 -118 23 -3 12 -8 101 -11
199 -5 139 -3 177 7 181 23 9 237 7 242 -2z m126 -67 c0 -41 -4 -63 -10 -59
-5 3 -10 33 -10 66 0 33 4 59 10 59 6 0 10 -29 10 -66z m105 -481 c-12 -234
-17 -267 -39 -271 -11 -2 -57 -1 -103 3 l-83 7 0 199 0 199 116 0 116 0 -7
-137z m-435 -371 c0 -15 -2 -15 -10 -2 -13 20 -13 33 0 25 6 -3 10 -14 10 -23z
m-20 -12 c0 -11 -4 -28 -9 -38 -6 -9 -12 -29 -15 -44 -4 -15 -13 -33 -21 -42
-8 -8 -15 -19 -15 -24 0 -6 -3 -12 -8 -14 -4 -1 -15 -34 -25 -73 -10 -38 -23
-71 -28 -73 -5 -2 -9 -12 -9 -22 0 -10 -4 -20 -9 -22 -5 -1 -32 -46 -61 -98
-29 -52 -58 -102 -65 -110 -7 -8 -29 -46 -49 -83 -49 -93 -72 -122 -80 -101
-12 30 -6 58 28 128 18 39 42 89 51 111 25 55 91 161 127 205 16 19 44 71 61
115 32 79 105 205 119 205 5 0 8 -9 8 -20z m189 -887 c-1 -130 -12 -114 -24
35 -7 72 -5 82 9 82 14 0 16 -15 15 -117z m74 55 c-3 -35 -11 -97 -18 -138
l-13 -75 -1 100 c-1 120 7 175 25 175 11 0 12 -14 7 -62z m880 -368 c3 -58 3
-87 1 -65 -3 22 -11 93 -19 157 -18 141 -18 178 1 83 7 -38 15 -117 17 -175z
m-1696 163 c-3 -10 -5 -4 -5 12 0 17 2 24 5 18 2 -7 2 -21 0 -30z m10 -80 c-3
-10 -5 -4 -5 12 0 17 2 24 5 18 2 -7 2 -21 0 -30z m10 -85 c-2 -13 -4 -3 -4
22 0 25 2 35 4 23 2 -13 2 -33 0 -45z m10 -105 c-2 -16 -4 -3 -4 27 0 30 2 43
4 28 2 -16 2 -40 0 -55z"/>
</g>
</svg>
