<?xml version="1.0" standalone="no"?>
<!DOCTYPE svg PUBLIC "-//W3C//DTD SVG 20010904//EN"
 "http://www.w3.org/TR/2001/REC-SVG-20010904/DTD/svg10.dtd">
<svg version="1.0" xmlns="http://www.w3.org/2000/svg"
 width="1500.000000pt" height="1500.000000pt" viewBox="0 0 1500.000000 1500.000000"
 preserveAspectRatio="xMidYMid meet">
<metadata>
Created by potrace 1.11, written by Peter Selinger 2001-2013
</metadata>
<g transform="translate(0.000000,1500.000000) scale(0.100000,-0.100000)"
fill="#000000" stroke="none">
<path d="M0 7500 l0 -7500 7500 0 7500 0 0 7500 0 7500 -7500 0 -7500 0 0
-7500z m7253 5658 c7 -19 -4 -79 -13 -73 -11 7 -10 85 0 85 4 0 10 -6 13 -12z
m-39 -105 c3 -10 8 -94 11 -188 4 -93 9 -174 12 -179 10 -16 12 -56 2 -50 -5
3 -9 -2 -9 -10 0 -8 5 -18 10 -21 12 -7 10 -46 -2 -55 -4 -3 -1 -23 6 -45 10
-28 11 -42 3 -47 -7 -4 -5 -15 6 -32 14 -21 15 -24 2 -20 -19 8 -19 -1 1 -31
13 -21 14 -28 4 -40 -10 -12 -10 -21 -2 -40 7 -16 8 -25 2 -25 -6 0 -8 -16 -4
-41 4 -24 2 -56 -6 -80 -11 -34 -11 -42 -1 -49 8 -4 11 -13 7 -19 -4 -5 2 -16
14 -23 26 -17 26 -38 -2 -38 -21 0 -21 0 3 -21 21 -19 21 -21 4 -15 -17 5 -20
1 -22 -24 -1 -16 2 -32 7 -35 6 -4 10 -15 10 -25 0 -10 6 -20 12 -22 9 -3 8
-9 -5 -22 -21 -22 -22 -50 -1 -70 8 -9 12 -16 7 -16 -5 0 -14 5 -21 12 -9 9
-12 8 -12 -4 0 -10 12 -23 27 -30 14 -7 29 -19 31 -27 3 -8 0 -11 -5 -8 -5 3
-15 2 -23 -4 -10 -6 -11 -9 -2 -9 19 0 14 -24 -8 -38 -12 -7 -18 -17 -14 -23
3 -6 8 -29 10 -51 2 -23 11 -46 21 -54 17 -13 17 -13 1 -14 -32 0 -21 -46 22
-91 42 -45 47 -62 8 -35 -12 9 -28 16 -35 16 -16 0 -17 -27 -2 -32 6 -2 13
-35 15 -76 3 -56 1 -74 -10 -78 -12 -4 -11 -9 5 -25 20 -20 25 -39 10 -39 -5
0 -9 -23 -7 -51 1 -34 -3 -53 -12 -58 -11 -6 -6 -15 18 -39 35 -35 45 -40 36
-17 -6 17 -4 18 18 9 21 -8 21 -24 0 -24 -8 0 -13 -4 -10 -9 3 -4 -6 -6 -20
-3 -23 4 -25 2 -19 -17 4 -14 2 -21 -6 -21 -10 0 -10 -3 -2 -11 7 -7 9 -25 6
-42 -5 -26 -4 -29 14 -23 16 5 22 1 27 -18 3 -13 9 -32 13 -42 6 -16 5 -17 -9
-4 -9 8 -14 18 -11 23 2 4 -1 7 -6 7 -14 0 -14 -17 -1 -25 6 -4 10 -14 8 -23
-1 -10 2 -24 7 -32 5 -8 11 -23 12 -33 2 -14 -1 -17 -17 -12 -15 5 -20 2 -20
-14 0 -11 8 -27 17 -36 13 -14 14 -21 5 -36 -10 -15 -9 -19 2 -19 19 0 39 -63
31 -99 -4 -17 -14 -31 -26 -34 -17 -5 -18 -3 -8 10 10 12 10 16 -2 24 -19 12
-26 11 -32 -5 -7 -18 21 -58 35 -50 10 7 28 -13 28 -31 0 -5 -5 -3 -10 5 -8
12 -10 11 -10 -7 0 -13 5 -23 10 -23 6 0 10 -6 10 -14 0 -17 78 -57 86 -44 4
5 3 44 -2 86 -12 118 -10 153 8 193 14 32 14 38 2 43 -17 6 -19 36 -3 36 8 0
7 5 -1 15 -15 19 -9 28 14 19 10 -4 16 -18 16 -40 0 -19 5 -34 10 -34 19 0 10
-38 -11 -43 -16 -4 -19 -10 -14 -29 4 -13 14 -29 24 -37 12 -10 13 -15 4 -18
-15 -5 -18 -53 -4 -53 16 0 19 -40 4 -55 -11 -12 -12 -15 -1 -16 10 0 10 -2 1
-6 -15 -5 -18 -33 -4 -33 5 0 11 -11 13 -25 4 -18 1 -25 -11 -25 -13 0 -13 -2
-3 -9 15 -9 17 -43 26 -311 3 -85 8 -198 11 -250 3 -52 8 -198 10 -325 3 -126
10 -262 16 -301 5 -39 10 -86 9 -105 0 -19 2 -92 5 -164 2 -71 6 -202 7 -290
2 -88 7 -163 12 -167 6 -4 5 -12 -3 -21 -6 -8 -10 -27 -7 -41 3 -14 1 -26 -3
-26 -5 0 -11 -10 -14 -22 -4 -15 0 -26 13 -35 16 -11 19 -26 19 -96 0 -54 4
-83 12 -86 8 -2 7 -6 -2 -12 -12 -8 -11 -11 1 -19 10 -6 11 -10 3 -10 -7 0
-13 -6 -13 -14 0 -8 6 -17 13 -20 9 -5 9 -7 -2 -12 -11 -5 -11 -8 0 -15 10 -6
11 -9 2 -9 -7 0 -13 -7 -13 -16 0 -8 -4 -12 -10 -9 -5 3 -10 1 -10 -5 0 -6 11
-8 28 -5 26 6 26 6 8 -9 -11 -9 -15 -16 -9 -16 13 0 22 -73 26 -217 2 -103 1
-113 -15 -113 -25 0 -23 -16 3 -23 18 -5 20 -11 15 -44 -3 -21 -2 -44 3 -52 5
-8 7 -20 4 -28 -7 -19 -43 -16 -43 3 0 14 -3 14 -15 4 -8 -7 -15 -21 -15 -31
0 -12 -7 -19 -19 -19 -21 0 -38 -18 -35 -37 1 -7 2 -22 3 -34 1 -14 6 -19 15
-16 8 3 16 -2 19 -14 4 -14 0 -19 -16 -19 -19 0 -20 -2 -6 -15 15 -16 15 -75
-1 -75 -4 0 -5 -12 -2 -26 3 -19 1 -25 -7 -20 -8 5 -8 0 -1 -18 10 -28 9 -85
-3 -103 -5 -7 -5 -13 0 -13 16 0 33 -53 22 -66 -7 -9 -7 -19 1 -34 6 -11 8
-26 3 -33 -11 -18 -13 -97 -2 -97 5 0 9 -6 9 -14 0 -8 7 -16 15 -20 8 -3 15
-17 15 -31 0 -15 -4 -24 -10 -20 -5 3 -10 -1 -10 -9 0 -8 -7 -22 -16 -31 -15
-15 -15 -18 5 -36 22 -21 27 -49 11 -65 -5 -5 -12 -27 -16 -49 -3 -22 -10 -43
-16 -46 -10 -7 -1 -56 13 -65 14 -8 10 -24 -6 -24 -23 0 -18 -13 16 -43 18
-15 29 -30 25 -34 -3 -3 -15 2 -26 12 -11 10 -20 15 -20 11 0 -14 37 -55 44
-49 3 3 6 -1 6 -9 0 -11 -6 -14 -20 -11 -11 3 -17 9 -14 14 3 5 0 9 -6 9 -8 0
-9 -7 -5 -17 8 -18 8 -23 3 -78 -2 -23 4 -36 25 -54 22 -18 25 -26 15 -32 -10
-7 -10 -9 0 -9 9 0 10 -5 2 -19 -5 -11 -10 -32 -9 -48 0 -25 1 -26 10 -8 8 18
8 18 6 -5 -1 -17 -8 -25 -20 -24 -21 2 -22 -9 -2 -26 8 -7 15 -21 15 -31 0
-10 4 -21 10 -24 10 -6 9 -32 -2 -50 -4 -6 -3 -17 3 -25 16 -27 11 -42 -12
-35 -12 4 -19 3 -17 -1 11 -20 22 -50 23 -64 4 -34 18 -80 25 -80 4 0 10 -11
12 -25 6 -27 -9 -33 -42 -15 -24 13 -40 -8 -18 -24 8 -6 18 -21 22 -34 4 -12
15 -22 24 -22 15 0 15 -2 2 -10 -13 -9 -13 -10 0 -10 13 0 13 -1 0 -10 -13 -9
-13 -12 3 -21 22 -13 24 -69 2 -69 -8 0 -15 6 -15 14 0 8 -4 18 -10 21 -21 13
-9 -34 16 -58 23 -24 24 -26 7 -36 -12 -7 -14 -13 -7 -18 21 -16 23 -41 3 -46
-15 -4 -19 -14 -19 -45 0 -27 -5 -42 -16 -46 -13 -5 -12 -9 5 -27 11 -12 18
-26 15 -31 -3 -4 4 -8 14 -8 21 0 32 -18 32 -51 0 -16 -4 -17 -25 -9 -15 6
-26 6 -30 0 -4 -6 1 -10 10 -10 25 0 40 -22 40 -57 0 -18 -2 -33 -5 -33 -3 0
-15 -8 -27 -17 -17 -14 -19 -22 -11 -55 4 -22 6 -43 3 -48 -3 -5 4 -14 15 -20
11 -6 20 -19 20 -28 0 -10 5 -23 12 -30 7 -7 8 -12 4 -12 -5 0 -3 -6 3 -14 8
-10 9 -16 1 -21 -6 -3 -8 -11 -5 -16 4 -5 2 -9 -4 -9 -5 0 -13 5 -16 10 -3 6
-1 10 6 10 8 0 8 4 -1 15 -7 8 -18 15 -25 15 -20 0 -5 -48 16 -53 19 -5 27
-37 10 -37 -14 0 -5 -61 10 -71 8 -5 9 -9 3 -9 -17 0 -24 -51 -8 -57 7 -2 13
-12 12 -21 0 -9 4 -28 8 -42 l8 -25 -33 28 c-18 15 -40 27 -49 26 -12 0 -9 -4
8 -12 14 -6 28 -16 32 -22 9 -12 -1 -59 -14 -63 -15 -6 -8 -22 9 -22 14 0 14
-3 -5 -20 -12 -11 -26 -20 -31 -20 -6 0 -8 -7 -5 -15 4 -8 15 -15 25 -15 12 0
23 -10 29 -25 5 -14 15 -24 21 -23 6 2 14 -3 17 -11 4 -11 -4 -12 -34 -7 -29
5 -35 4 -22 -4 19 -12 54 -82 61 -123 4 -24 1 -27 -27 -28 -17 0 -25 -3 -18
-6 6 -2 10 -9 6 -14 -3 -5 0 -9 7 -9 12 0 38 -29 39 -43 0 -5 -12 -8 -27 -7
-65 5 -68 2 -39 -27 17 -17 24 -32 20 -42 -7 -18 -7 -37 5 -103 0 -5 7 -8 15
-8 18 0 28 -40 14 -57 -5 -7 -7 -20 -4 -29 4 -12 2 -15 -9 -10 -11 4 -15 -1
-15 -16 0 -17 -3 -19 -12 -10 -16 16 -28 15 -28 -3 0 -8 4 -15 9 -15 5 0 11
-9 14 -20 3 -11 13 -23 24 -27 29 -11 45 -43 21 -43 -6 0 -8 3 -5 7 9 8 -24
32 -45 33 -27 0 -21 -17 7 -24 14 -4 26 -14 26 -24 1 -9 2 -24 3 -32 1 -8 7
-26 15 -39 18 -32 3 -44 -38 -30 -36 13 -47 8 -37 -17 4 -11 14 -15 31 -12 16
3 22 1 18 -6 -13 -21 -12 -57 3 -63 16 -6 19 -33 4 -33 -5 0 -10 -9 -10 -20 0
-11 5 -20 10 -20 6 0 10 -7 10 -16 0 -10 -6 -13 -17 -10 -19 6 -54 -13 -38
-20 45 -20 41 -49 -8 -57 -48 -7 -57 0 -50 36 3 18 10 35 15 38 6 3 3 9 -5 12
-16 6 -30 60 -31 117 -1 28 -5 34 -18 32 -10 -2 -18 2 -18 8 0 5 6 10 13 11 9
0 9 2 -1 6 -9 4 -8 9 6 21 27 24 33 58 16 97 -8 21 -10 35 -3 37 13 4 12 178
-2 178 -3 0 -6 14 -7 30 0 17 4 30 9 30 5 0 9 7 9 15 0 8 -4 15 -8 15 -5 0 -7
19 -5 43 10 120 7 149 -17 167 -20 15 -21 19 -7 26 21 12 26 92 7 105 -13 8
-13 10 0 19 13 9 13 11 0 20 -10 6 -11 10 -2 10 6 0 12 9 12 20 0 11 -4 20
-10 20 -5 0 -10 9 -10 20 0 11 5 20 10 20 6 0 10 9 10 20 0 11 -6 20 -12 20
-10 0 -10 2 0 9 18 11 19 71 1 82 -11 7 -10 9 4 9 10 0 15 5 12 10 -3 6 -2 10
3 10 6 0 8 9 5 20 -3 11 -12 20 -19 20 -16 0 -16 1 -14 92 1 40 -3 69 -10 73
-7 5 -9 21 -5 46 5 26 2 45 -8 59 -11 15 -12 31 -7 57 5 19 7 45 4 56 -2 12 2
24 9 29 9 5 9 14 -2 40 -22 54 -26 100 -8 109 12 7 13 17 5 52 -5 26 -5 53 0
68 9 23 2 64 -19 102 -5 9 -6 17 -2 17 5 0 8 25 9 54 0 30 6 62 13 70 8 9 10
23 6 33 -19 42 -22 143 -7 184 6 14 6 32 2 40 -12 22 -23 159 -26 334 -2 88
-4 167 -5 175 0 8 2 38 6 67 6 39 4 61 -8 85 -11 23 -13 45 -8 73 6 36 7 61 1
68 -2 3 -12 166 -10 192 3 81 -1 234 -6 253 -4 13 -2 22 5 22 7 0 6 9 -5 25
-9 14 -12 30 -8 37 14 22 14 91 1 117 -8 17 -9 25 -1 28 7 2 10 39 8 106 -5
148 -10 177 -34 194 -17 12 -19 18 -9 29 7 8 18 13 25 10 20 -7 25 9 14 38 -6
17 -6 26 0 26 6 0 10 9 10 20 0 11 -5 20 -11 20 -6 0 -9 9 -6 20 3 13 0 20 -9
20 -8 0 -14 5 -14 10 0 6 7 10 15 10 8 0 15 5 15 10 0 16 -30 12 -36 -5 -4 -8
-12 -15 -20 -15 -8 0 -14 -8 -14 -17 0 -15 -2 -14 -15 3 -13 17 -14 10 -9 -66
3 -47 7 -87 9 -89 2 -1 0 -14 -5 -27 -7 -19 -5 -26 12 -38 21 -15 21 -16 4
-35 -14 -16 -17 -39 -17 -138 0 -180 5 -249 21 -268 12 -14 12 -20 0 -38 -8
-14 -13 -44 -12 -79 2 -50 0 -58 -15 -58 -13 0 -14 -3 -6 -8 7 -4 15 -24 17
-43 3 -18 5 -34 6 -34 1 0 4 -49 6 -108 3 -75 9 -115 19 -130 19 -27 19 -37 1
-37 -14 0 -28 -45 -17 -56 3 -3 7 -49 9 -102 2 -54 5 -131 6 -172 5 -90 -3
-148 -15 -128 -13 19 -11 4 5 -44 15 -47 33 -222 27 -278 -5 -61 -5 -142 1
-237 4 -58 3 -95 -4 -99 -5 -3 -7 -16 -4 -29 3 -12 8 -76 12 -141 3 -72 10
-122 17 -127 9 -6 9 -10 0 -14 -14 -5 -18 -63 -4 -63 4 0 14 -33 21 -74 9 -56
10 -82 1 -107 -6 -17 -11 -65 -11 -105 0 -43 -4 -74 -10 -74 -5 0 -10 -22 -10
-50 0 -48 -12 -66 -24 -35 -7 19 -32 19 -40 0 -3 -8 -4 -18 -3 -21 3 -9 -57
-38 -73 -35 -8 2 -19 8 -23 14 -5 7 -6 3 -2 -10 12 -45 13 -63 4 -69 -14 -8
-39 15 -33 31 3 8 -4 22 -15 32 -24 20 -27 33 -7 33 8 0 16 13 18 30 3 20 0
30 -9 30 -20 0 -16 37 7 60 17 17 18 23 8 42 -7 12 -18 28 -25 35 -7 8 -10 20
-7 27 3 8 1 31 -5 51 -9 33 -8 38 10 42 19 5 28 33 10 33 -5 0 -14 13 -19 29
-11 30 -1 51 25 51 19 0 16 10 -10 34 -21 19 -22 28 -19 111 4 119 2 251 -5
295 -5 39 -5 137 0 335 2 72 0 141 -5 154 -5 13 -10 39 -13 58 -4 30 -2 33 10
23 12 -10 15 -10 15 2 0 8 -4 18 -10 24 -9 9 -18 343 -8 360 9 15 2 309 -7
324 -12 19 -13 42 -2 56 4 7 3 23 -3 36 -8 17 -9 45 -1 97 5 40 6 83 2 95 -4
11 -6 100 -4 196 5 218 4 255 -7 304 -5 21 -6 48 -3 60 7 31 6 252 -2 276 -3
11 -3 20 2 20 4 0 7 30 5 67 -1 38 -5 154 -7 258 -3 105 -6 201 -7 215 -1 14
-1 59 1 100 4 117 -8 730 -14 740 -3 5 -1 11 4 14 11 7 3 193 -9 215 -4 8 -4
25 0 37 12 31 9 472 -2 507 -6 15 -14 27 -19 27 -5 0 -9 7 -9 15 0 8 8 15 18
15 16 0 17 29 18 453 1 248 3 536 4 638 2 102 0 190 -4 197 -4 6 -2 29 3 49
19 69 25 211 11 238 -10 18 -10 31 -2 52 6 15 13 67 16 116 3 48 7 90 10 95 2
4 0 29 -5 56 -5 26 -5 53 -1 60 8 13 10 53 16 399 3 136 7 251 10 255 2 4 7
88 11 187 4 99 11 182 16 183 5 2 9 19 9 37 0 57 22 88 34 48z m124 -55 c9
-31 30 -204 31 -258 0 -14 2 -70 5 -125 3 -61 1 -102 -5 -105 -16 -11 1 -39
19 -32 12 4 11 0 -5 -17 -18 -19 -19 -27 -10 -69 5 -26 17 -52 26 -59 14 -11
13 -12 -6 -13 -37 0 -63 34 -62 83 1 75 -11 210 -26 284 -8 40 -15 81 -15 93
0 11 -6 20 -12 20 -9 0 -10 2 -2 8 11 6 31 144 25 166 -4 16 9 56 18 56 5 0
14 -15 19 -32z m31 -689 c20 -7 31 -18 31 -30 0 -35 -38 -18 -64 29 -9 15 -7
15 33 1z m-5 -54 c11 -8 16 -18 12 -22 -3 -4 -16 3 -28 15 -25 25 -13 29 16 7z
m20 -41 c21 -8 21 -34 0 -34 -11 0 -15 -6 -11 -20 3 -11 1 -20 -4 -20 -14 0
-30 40 -24 60 7 21 14 24 39 14z m-86 -92 c2 -7 -3 -12 -12 -12 -9 0 -16 7
-16 16 0 17 22 14 28 -4z m90 -23 c-7 -4 -2 -16 11 -30 21 -23 27 -40 14 -38
-19 3 -33 -2 -33 -11 0 -5 6 -10 13 -10 8 0 12 -17 13 -49 l2 -50 -21 20 c-16
14 -22 32 -22 64 0 24 -6 50 -12 57 -17 16 -16 35 2 42 8 3 15 12 15 21 0 13
2 14 14 3 9 -8 10 -15 4 -19z m22 -234 c0 -8 -7 -15 -15 -15 -8 0 -15 7 -15
15 0 8 7 15 15 15 8 0 15 -7 15 -15z m14 -41 c3 -9 4 -20 1 -25 -8 -11 -45 12
-45 28 0 19 37 16 44 -3z m-94 -18 c0 -3 -4 -8 -10 -11 -5 -3 -10 -1 -10 4 0
6 5 11 10 11 6 0 10 -2 10 -4z m87 -66 c11 -17 10 -17 -18 -3 -16 8 -29 18
-29 23 0 14 35 0 47 -20z m-3 -36 c24 -23 19 -26 -14 -9 -16 9 -30 18 -30 20
0 11 30 4 44 -11z m-6 -66 c18 -18 15 -28 -8 -28 -11 0 -20 2 -20 4 0 2 -3 11
-6 20 -7 19 16 22 34 4z m-71 -150 c-3 -8 -6 -5 -6 6 -1 11 2 17 5 13 3 -3 4
-12 1 -19z m92 -40 c8 -24 8 -94 0 -103 -10 -9 -49 8 -49 21 0 8 5 14 10 14 6
0 10 6 10 14 0 8 6 17 13 20 8 3 5 11 -10 24 -28 25 -29 32 -3 32 12 0 24 -9
29 -22z m40 -4 c3 -16 1 -17 -13 -5 -19 16 -21 34 -3 29 6 -3 14 -13 16 -24z
m-38 -257 c-13 -13 -23 9 -15 35 l7 23 9 -24 c5 -15 5 -28 -1 -34z m-81 -17
c0 -5 -4 -10 -10 -10 -5 0 -10 5 -10 10 0 6 5 10 10 10 6 0 10 -4 10 -10z m0
-48 c0 -15 -2 -15 -10 -2 -13 20 -13 33 0 25 6 -3 10 -14 10 -23z m114 -94
c-3 -10 -1 -25 6 -33 8 -10 8 -15 -1 -20 -6 -4 -24 5 -40 22 -37 36 -31 61 12
55 24 -4 28 -8 23 -24z m-34 -49 c0 -6 -4 -7 -10 -4 -5 3 -10 11 -10 16 0 6 5
7 10 4 6 -3 10 -11 10 -16z m-70 -39 c0 -5 -4 -10 -9 -10 -6 0 -13 5 -16 10
-3 6 1 10 9 10 9 0 16 -4 16 -10z m120 -65 c0 -8 -4 -15 -9 -15 -5 0 -11 7
-15 15 -3 9 0 15 9 15 8 0 15 -7 15 -15z m-30 -35 c0 -5 -2 -10 -4 -10 -3 0
-8 5 -11 10 -3 6 -1 10 4 10 6 0 11 -4 11 -10z m33 -50 c3 -11 1 -23 -5 -26
-5 -3 -7 -12 -4 -20 3 -8 -1 -14 -9 -14 -8 0 -15 7 -15 15 0 8 5 15 12 15 9 0
9 3 0 12 -16 16 -15 38 2 38 7 0 16 -9 19 -20z m-103 -141 c0 -16 -3 -18 -19
-7 -15 9 -17 16 -9 25 13 16 28 7 28 -18z m250 -3304 c10 -12 10 -21 2 -38 -9
-18 -11 -19 -11 -4 -1 9 -5 17 -11 17 -5 0 -10 9 -10 20 0 24 13 26 30 5z m18
-129 c2 -10 -4 -26 -14 -37 -16 -18 -16 -20 1 -39 11 -12 16 -29 13 -45 -3
-14 -1 -28 3 -31 12 -7 11 -74 -1 -74 -5 0 -10 9 -10 21 0 15 -5 19 -19 14
-12 -3 -21 0 -25 10 -9 23 -6 30 10 27 23 -5 16 27 -11 52 -29 27 -31 41 -9
63 8 9 13 22 10 30 -4 8 -4 19 -1 24 10 15 50 3 53 -15z m-25 -243 c-7 -2 -19
-2 -25 0 -7 3 -2 5 12 5 14 0 19 -2 13 -5z m2 -23 c-3 -5 -13 -10 -21 -10 -8
0 -12 5 -9 10 3 6 13 10 21 10 8 0 12 -4 9 -10z m35 -11 c0 -5 -4 -9 -10 -9
-5 0 -10 7 -10 16 0 8 5 12 10 9 6 -3 10 -10 10 -16z m0 -640 c0 -5 -4 -9 -10
-9 -5 0 -10 7 -10 16 0 8 5 12 10 9 6 -3 10 -10 10 -16z m40 -195 c0 -14 -4
-23 -10 -19 -5 3 -10 15 -10 26 0 10 5 19 10 19 6 0 10 -12 10 -26z m-28 -31
c-6 -3 -10 -9 -7 -14 4 -5 -1 -6 -9 -3 -23 9 -19 20 7 21 12 0 16 -1 9 -4z
m-272 -1598 c0 -8 -7 -15 -15 -15 -8 0 -15 7 -15 15 0 8 7 15 15 15 8 0 15 -7
15 -15z m4 -167 c4 -46 6 -92 5 -103 0 -11 3 -43 8 -71 7 -38 6 -53 -4 -63
-13 -12 -11 -49 4 -103 2 -10 0 -18 -6 -18 -7 0 -7 -7 1 -21 11 -18 10 -23 -9
-39 -25 -20 -31 -60 -9 -60 8 0 17 -7 20 -16 5 -12 1 -14 -17 -9 l-22 7 22
-17 c31 -22 28 -65 -4 -65 -13 0 -23 5 -23 11 0 5 -4 8 -9 4 -5 -3 -13 0 -16
6 -4 5 -14 8 -22 5 -27 -11 -61 5 -66 30 -2 13 0 27 4 30 5 3 9 0 9 -5 0 -6
15 -9 33 -8 17 2 40 0 50 -5 10 -5 17 -5 17 0 0 13 -25 33 -32 26 -3 -2 -8 2
-12 11 -3 9 -2 13 4 10 6 -3 10 3 10 14 0 11 5 23 10 26 6 3 10 18 10 33 -1
24 -2 25 -13 11 -11 -15 -16 -15 -37 -4 l-24 13 24 4 c18 2 25 9 25 25 0 12 4
25 8 29 4 4 7 14 7 22 0 11 -9 12 -40 7 -32 -5 -40 -4 -40 8 0 9 6 17 13 20 6
2 -7 10 -31 17 -23 7 -46 18 -51 24 -5 6 -12 46 -16 89 -6 64 -5 77 7 77 8 0
23 -9 33 -20 13 -14 25 -18 43 -13 23 5 24 4 11 -9 -8 -9 -16 -16 -19 -16 -38
2 -45 -17 -23 -57 10 -18 12 -17 20 15 8 32 13 35 51 38 30 2 42 8 42 19 0 10
-6 13 -16 9 -15 -6 -15 -4 -1 17 l16 24 -72 7 c-57 5 -75 11 -88 28 -10 13
-21 18 -29 13 -10 -6 -12 -4 -7 9 4 10 7 22 7 27 0 5 7 9 15 9 8 0 15 5 15 10
0 6 5 10 10 10 6 0 10 -7 10 -15 0 -8 9 -15 20 -15 11 0 20 7 20 15 0 8 7 15
16 15 8 0 22 -7 30 -15 21 -21 51 -19 64 5 6 11 17 20 24 20 11 0 16 -22 20
-82z m-198 -437 c0 -11 -4 -17 -8 -15 -4 3 -8 12 -8 20 0 8 4 14 8 14 4 0 8
-9 8 -19z m84 -31 c0 -13 -20 -13 -40 0 -12 8 -9 10 13 10 15 0 27 -4 27 -10z
m-80 -52 c0 -18 2 -20 10 -8 5 8 11 12 14 9 11 -10 -11 -29 -27 -23 -18 7 -24
44 -7 44 6 0 10 -10 10 -22z m-7 -108 c3 -11 1 -23 -4 -26 -5 -3 -9 0 -9 5 0
6 -7 11 -15 11 -8 0 -15 7 -15 15 0 22 37 18 43 -5z m210 3 c11 -40 -1 -147
-17 -159 -13 -9 -14 -13 -4 -17 11 -5 11 -7 0 -15 -11 -8 -11 -10 1 -15 12 -4
43 -67 33 -67 -11 0 -66 33 -80 49 -17 18 -16 19 4 26 l21 7 -22 19 c-16 14
-31 18 -51 14 -17 -4 -28 -2 -28 4 0 6 6 11 13 11 8 0 7 4 -3 10 -10 6 -11 10
-2 10 6 0 12 5 12 10 0 6 -10 10 -21 10 -17 0 -19 3 -10 14 9 11 8 17 -3 29
-19 19 -12 25 20 19 21 -4 24 -9 20 -28 -3 -12 -2 -26 4 -29 5 -3 10 1 10 10
0 9 4 14 9 10 14 -8 51 35 51 60 0 37 34 51 43 18z m-123 -193 c0 -5 -4 -10
-9 -10 -6 0 -13 5 -16 10 -3 6 1 10 9 10 9 0 16 -4 16 -10z m130 -210 c0 -5
-2 -10 -4 -10 -2 0 -11 -3 -19 -6 -8 -3 -17 2 -20 10 -5 12 0 16 18 16 14 0
25 -4 25 -10z m218 -175 c7 -14 12 -33 12 -42 0 -8 6 -13 13 -10 11 4 11 -2 3
-28 -7 -23 -14 -31 -22 -24 -6 5 -14 6 -17 2 -4 -3 -7 -1 -7 6 0 6 -6 11 -12
9 -45 -8 -77 35 -64 87 5 21 12 25 45 25 31 0 40 -5 49 -25z m-222 -159 c-3
-33 -2 -57 4 -61 5 -3 10 -16 10 -28 -1 -20 -2 -19 -16 7 -12 21 -14 42 -9 82
3 30 9 54 12 54 3 0 3 -24 -1 -54z m206 16 c10 -7 18 -20 18 -28 0 -18 -8 -18
-27 1 -8 8 -19 13 -24 9 -5 -3 -16 1 -24 10 -13 13 -13 15 5 21 11 3 20 12 21
18 0 7 3 5 6 -3 4 -8 14 -21 25 -28z m-22 -63 c0 -6 7 -9 14 -6 10 4 13 1 9
-9 -4 -10 7 -26 31 -45 21 -18 36 -39 36 -52 0 -16 -3 -18 -9 -8 -6 9 -11 10
-15 2 -4 -6 -12 -8 -18 -5 -6 4 -24 8 -40 9 -22 2 -28 -2 -28 -17 0 -19 58
-80 70 -73 11 6 28 -23 20 -35 -7 -11 -12 -10 -25 3 -22 22 -28 21 -15 -2 5
-11 10 -22 10 -25 0 -12 -32 -5 -47 10 -9 8 -22 13 -30 9 -12 -4 -14 0 -8 17
4 13 7 31 6 41 0 9 5 15 10 11 6 -3 5 3 -3 15 -7 12 -18 21 -25 21 -17 0 -20
19 -11 75 9 49 28 75 55 75 7 0 13 -5 13 -11z m-195 -80 c8 -34 8 -34 -22 -43
-19 -6 -23 -3 -23 13 0 11 5 23 11 26 6 4 8 13 5 21 -3 8 1 14 9 14 7 0 16
-14 20 -31z m9 -126 c4 -9 2 -21 -4 -27 -7 -7 -10 -3 -10 11 0 12 -6 24 -12
26 -8 4 -7 6 3 6 9 1 20 -7 23 -16z m-2 -65 c-6 -24 -32 -23 -32 1 0 13 6 19
19 18 12 -1 17 -7 13 -19z m318 -62 c0 -2 -7 -7 -16 -10 -8 -3 -12 -2 -9 4 6
10 25 14 25 6z m-140 -186 c8 -11 20 -20 27 -20 7 0 13 -4 13 -10 0 -5 -14
-10 -31 -10 -28 0 -31 -2 -25 -25 6 -24 -7 -35 -18 -16 -7 11 5 101 13 101 4
0 13 -9 21 -20z m40 -166 c0 -2 -9 -4 -20 -4 -11 0 -20 4 -20 9 0 5 9 7 20 4
11 -3 20 -7 20 -9z m-32 -69 c-3 -3 -9 2 -12 12 -6 14 -5 15 5 6 7 -7 10 -15
7 -18z m-158 -94 c0 -6 -5 -13 -12 -17 -6 -4 -8 -3 -4 4 3 5 0 13 -6 15 -8 3
-6 6 5 6 9 1 17 -3 17 -8z m232 -16 c3 3 13 -12 24 -32 10 -21 23 -41 27 -44
14 -10 -40 -17 -57 -7 -12 7 -17 3 -22 -18 -4 -14 -9 -22 -13 -17 -3 5 -15 13
-26 18 -19 7 -19 8 5 15 16 5 19 8 8 9 -10 1 -22 10 -28 21 -10 18 -8 20 20
20 17 0 29 -4 26 -9 -3 -5 1 -12 10 -15 11 -4 15 0 12 16 -2 17 -10 23 -32 25
-37 3 -47 13 -13 13 15 0 27 5 27 11 0 8 4 9 13 0 8 -6 16 -9 19 -6z m-47
-147 c6 -24 3 -35 -11 -45 -10 -7 -23 -12 -29 -10 -15 5 -18 43 -5 66 16 31
37 25 45 -11z m-5 -68 c0 -5 -4 -10 -10 -10 -5 0 -10 5 -10 10 0 6 5 10 10 10
6 0 10 -4 10 -10z m40 -20 c9 -17 8 -20 -9 -20 -22 0 -35 15 -26 30 10 16 23
12 35 -10z m-9 -130 c25 -14 25 -40 -1 -40 -11 0 -20 5 -20 10 0 6 -6 10 -14
10 -8 0 -16 7 -20 15 -6 18 25 21 55 5z m-36 -198 c-6 -8 -35 12 -35 24 0 11
4 10 18 -3 10 -10 18 -19 17 -21z m55 -392 c0 -5 -4 -10 -10 -10 -5 0 -10 5
-10 10 0 6 5 10 10 10 6 0 10 -4 10 -10z m-76 -261 c-9 -16 -20 -10 -21 12 -2
17 1 18 12 9 8 -7 12 -16 9 -21z m31 -9 c-3 -5 -12 -10 -18 -10 -7 0 -6 4 3
10 19 12 23 12 15 0z"/>
<path d="M7290 10650 c0 -13 6 -20 18 -19 9 0 12 3 5 5 -7 3 -9 12 -6 20 3 8
0 14 -6 14 -6 0 -11 -9 -11 -20z"/>
<path d="M7270 10560 c0 -5 6 -10 13 -10 8 0 7 -4 -3 -10 -13 -9 -13 -10 0
-10 23 0 43 17 36 29 -9 14 -46 15 -46 1z"/>
<path d="M7270 10366 c0 -8 7 -16 15 -20 17 -6 18 -4 9 18 -8 20 -24 21 -24 2z"/>
<path d="M7320 10346 c0 -23 16 -27 17 -5 1 10 -2 19 -8 19 -5 0 -9 -6 -9 -14z"/>
<path d="M7375 10311 c-3 -5 3 -17 12 -27 13 -12 14 -19 5 -22 -16 -5 -16 -29
1 -35 10 -4 10 -6 0 -6 -20 -1 -15 -49 6 -72 18 -20 18 -20 30 9 7 15 13 48
15 73 2 36 -1 48 -22 67 -27 24 -38 27 -47 13z"/>
<path d="M7320 10092 c0 -10 7 -19 15 -19 8 0 15 2 15 4 0 3 -7 11 -15 19 -13
14 -15 13 -15 -4z"/>
<path d="M7290 9931 c0 -6 7 -11 15 -11 7 0 19 -8 25 -17 9 -16 10 -15 8 7 -2
17 -10 26 -25 28 -13 2 -23 -1 -23 -7z"/>
<path d="M7425 9920 c3 -5 8 -10 11 -10 2 0 4 5 4 10 0 6 -5 10 -11 10 -5 0
-7 -4 -4 -10z"/>
<path d="M7313 9865 c-14 -15 -4 -32 20 -32 20 0 21 6 4 28 -10 13 -15 14 -24
4z"/>
<path d="M7400 9869 c0 -21 16 -42 28 -38 6 2 2 14 -9 28 -11 13 -19 18 -19
10z"/>
<path d="M7310 9745 c0 -8 9 -15 20 -15 24 0 27 15 4 24 -22 9 -24 8 -24 -9z"/>
<path d="M7312 9638 c9 -7 18 -22 21 -33 3 -18 5 -18 11 -3 9 19 -13 48 -35
48 -9 0 -7 -4 3 -12z"/>
<path d="M7270 9620 c0 -5 5 -10 10 -10 6 0 10 5 10 10 0 6 -4 10 -10 10 -5 0
-10 -4 -10 -10z"/>
<path d="M7430 9620 c0 -5 5 -10 10 -10 6 0 10 5 10 10 0 6 -4 10 -10 10 -5 0
-10 -4 -10 -10z"/>
<path d="M7318 9494 c26 -21 30 -29 21 -40 -9 -11 -8 -14 5 -14 23 0 20 36 -4
53 -11 8 -17 17 -13 20 3 4 -5 7 -18 7 -23 0 -23 -1 9 -26z"/>
<path d="M7293 9411 c2 -34 12 -38 41 -16 18 14 14 41 -5 29 -5 -3 -16 0 -24
6 -12 10 -14 7 -12 -19z"/>
<path d="M7314 9251 c4 -6 3 -11 -3 -11 -6 0 -8 -6 -5 -14 3 -9 -3 -17 -15
-21 -24 -7 -29 -45 -6 -45 8 0 15 -4 15 -10 0 -19 18 -10 23 11 4 16 11 20 26
16 28 -7 34 6 19 40 -7 15 -12 29 -13 29 0 1 -11 5 -24 9 -16 5 -21 4 -17 -4z"/>
<path d="M7270 9100 c0 -5 5 -10 10 -10 6 0 10 -9 10 -20 0 -21 24 -27 36 -9
4 8 9 7 15 -2 6 -11 9 -9 9 7 0 13 -10 25 -25 32 -32 15 -55 15 -55 2z"/>
<path d="M7280 9020 c19 -13 30 -13 30 0 0 6 -10 10 -22 10 -19 0 -20 -2 -8
-10z"/>
<path d="M7293 9003 c-18 -2 -33 -8 -33 -13 0 -10 79 -25 87 -16 7 7 -4 36
-14 34 -4 0 -23 -3 -40 -5z"/>
<path d="M7350 8911 c0 -12 5 -21 10 -21 6 0 10 6 10 14 0 8 -4 18 -10 21 -5
3 -10 -3 -10 -14z"/>
<path d="M7260 8840 c0 -5 7 -7 16 -3 9 3 20 0 24 -8 5 -7 12 -10 15 -7 4 4 4
11 0 17 -8 14 -55 14 -55 1z"/>
<path d="M7320 8763 c1 -18 18 -35 24 -24 4 6 4 16 1 21 -7 12 -25 13 -25 3z"/>
<path d="M7300 8712 c0 -7 -7 -12 -15 -12 -8 0 -15 -4 -15 -10 0 -5 6 -10 14
-10 7 0 28 -3 46 -7 24 -4 32 -3 29 6 -3 7 -7 11 -11 9 -3 -2 -15 6 -27 16
-12 11 -21 14 -21 8z"/>
<path d="M7310 8585 c0 -21 28 -31 43 -16 9 9 8 14 -3 21 -22 14 -40 12 -40
-5z"/>
<path d="M7260 8520 c0 -5 7 -10 15 -10 8 0 15 5 15 10 0 6 -7 10 -15 10 -8 0
-15 -4 -15 -10z"/>
<path d="M7316 8515 c4 -8 -1 -17 -10 -21 -9 -3 -16 -12 -16 -20 0 -8 -4 -14
-10 -14 -16 0 -12 -27 5 -34 9 -3 15 -11 13 -18 -4 -23 26 -63 50 -64 18 0 21
3 16 19 -4 11 -1 23 7 28 10 6 8 9 -9 9 -21 0 -22 3 -16 36 5 27 4 35 -5 30
-6 -4 -11 -2 -11 3 0 14 17 14 25 1 9 -14 25 -2 25 18 0 9 -12 23 -27 30 -35
16 -44 15 -37 -3z"/>
<path d="M7490 8431 c0 -16 6 -21 25 -21 16 0 25 6 25 15 0 8 -4 15 -9 15 -5
0 -16 3 -25 6 -12 4 -16 0 -16 -15z"/>
<path d="M7360 8431 c0 -6 5 -13 10 -16 6 -3 10 1 10 9 0 9 -4 16 -10 16 -5 0
-10 -4 -10 -9z"/>
<path d="M7287 8326 c-19 -14 -23 -36 -7 -36 6 0 10 -8 11 -17 1 -28 42 -97
59 -101 22 -4 20 37 -2 44 -27 8 -22 34 17 70 37 37 39 34 -25 39 -8 0 -20 4
-25 7 -6 3 -18 1 -28 -6z"/>
<path d="M7270 8151 c0 -6 5 -11 10 -11 6 0 10 -11 10 -25 0 -14 7 -28 15 -31
19 -8 19 -28 0 -44 -13 -11 -14 -26 -8 -84 4 -39 7 -96 6 -126 -2 -46 1 -58
20 -73 15 -13 16 -17 5 -14 -9 3 -19 -1 -22 -9 -3 -9 1 -14 11 -14 9 0 24 -7
34 -16 11 -10 19 -12 24 -5 3 6 1 11 -4 11 -6 0 -11 7 -11 15 0 8 9 15 19 15
11 0 23 5 26 11 7 11 -20 42 -45 52 -11 4 -11 6 -2 6 7 1 21 9 32 19 18 17 18
18 -6 41 -19 18 -24 20 -24 7 0 -9 -4 -16 -10 -16 -23 0 -8 36 20 48 26 12 28
15 15 29 -22 22 -19 46 5 40 24 -6 26 6 5 27 -8 8 -15 19 -15 24 0 6 -5 12
-11 14 -14 5 6 48 21 48 6 0 10 5 10 10 0 6 -6 10 -14 10 -8 0 -16 10 -18 22
-3 19 -10 23 -50 26 -30 2 -48 -1 -48 -7z"/>
<path d="M7530 8071 c0 -12 6 -21 16 -21 9 0 14 7 12 17 -5 25 -28 28 -28 4z"/>
<path d="M7515 8020 c-3 -11 -11 -20 -16 -20 -5 0 -4 -6 2 -13 11 -11 16 -10
31 5 9 9 15 24 12 33 -8 21 -21 19 -29 -5z"/>
<path d="M7530 7945 c0 -8 5 -15 10 -15 6 0 10 7 10 15 0 8 -4 15 -10 15 -5 0
-10 -7 -10 -15z"/>
<path d="M7512 7848 c7 -19 38 -22 38 -4 0 10 -9 16 -21 16 -12 0 -19 -5 -17
-12z"/>
<path d="M7548 7783 c-10 -2 -18 -12 -18 -21 0 -15 -2 -15 -11 -2 -9 12 -9 11
-3 -5 11 -31 13 -116 2 -144 -7 -21 -7 -24 3 -13 21 20 29 14 17 -13 -13 -29
-7 -39 19 -31 19 6 49 63 39 73 -3 4 -6 -1 -6 -10 0 -9 -4 -17 -8 -17 -5 0 -7
15 -6 33 1 17 -3 39 -11 47 -23 27 -27 57 -9 64 9 4 14 9 11 13 -4 3 1 12 11
19 18 14 7 17 -30 7z"/>
<path d="M7535 7500 c-3 -5 -4 -10 -2 -10 3 0 1 -16 -3 -35 -5 -22 -4 -35 2
-35 6 0 8 -7 5 -15 -4 -8 -1 -17 5 -21 7 -4 8 -3 4 4 -4 7 -1 12 8 12 8 0 22
18 32 40 10 22 23 40 28 41 13 1 -44 28 -61 29 -6 0 -15 -4 -18 -10z"/>
<path d="M7283 5775 c-17 -19 -16 -25 2 -25 8 0 15 2 15 4 0 2 3 11 6 20 8 20
-7 20 -23 1z"/>
<path d="M7280 4789 c-12 -8 -9 -9 12 -5 16 4 28 1 31 -7 2 -6 8 -9 12 -5 11
10 -4 28 -23 28 -9 0 -24 -5 -32 -11z"/>
<path d="M7297 4704 c-3 -5 1 -15 9 -22 16 -14 18 -5 5 17 -5 7 -11 9 -14 5z"/>
<path d="M7565 4700 c3 -5 8 -10 11 -10 2 0 4 5 4 10 0 6 -5 10 -11 10 -5 0
-7 -4 -4 -10z"/>
<path d="M7208 4627 c14 -28 16 -29 28 -13 17 24 9 41 -20 42 -23 2 -23 1 -8
-29z"/>
<path d="M7235 4540 c-3 -6 1 -7 9 -4 18 7 21 14 7 14 -6 0 -13 -4 -16 -10z"/>
<path d="M7202 4528 c2 -6 10 -14 16 -16 7 -2 10 2 6 12 -7 18 -28 22 -22 4z"/>
<path d="M7595 4390 c-3 -5 1 -10 9 -10 9 0 16 5 16 10 0 6 -4 10 -9 10 -6 0
-13 -4 -16 -10z"/>
<path d="M7640 3739 c0 -5 5 -7 10 -4 6 3 10 8 10 11 0 2 -4 4 -10 4 -5 0 -10
-5 -10 -11z"/>
<path d="M7560 3668 c0 -9 7 -19 16 -22 15 -6 15 -4 3 11 -7 10 -15 20 -16 22
-2 2 -3 -3 -3 -11z"/>
<path d="M7595 3290 c-3 -5 1 -10 9 -10 9 0 16 5 16 10 0 6 -4 10 -9 10 -6 0
-13 -4 -16 -10z"/>
<path d="M7300 4123 c0 -6 -7 -19 -16 -28 -22 -22 -13 -27 24 -14 34 12 37 16
22 39 -9 13 -10 13 -10 0 0 -13 -1 -13 -10 0 -6 9 -10 10 -10 3z"/>
</g>
</svg>
